# xmcd
#
# Track frame offsets:
# 150
# 10542
# 22467
# 35897
# 46930
# 57545
# 69207
# 79857
# 88777
# 100820
#
# Disc length: 1482 seconds
#
#
# Revision: 0
# Processed by: cddbd v1.5.2PL0 Copyright (c) Steve Scherf et al.
# Submitted via: FreeRIP 2.951 
#
DISCID=8005c80a
DTITLE=Various Artist - A Grand Old Christmas
DYEAR=1900
DGENRE=Christmas
TTITLE0=It came upon a midnight clear-Chuck Wagon Gang
TTITLE1=No place like home on Christmas-"Little" Jimmy Dickens
TTITLE2=White Christmas-Sonny James
TTITLE3=O come all ye faithful-George Jones
TTITLE4=Blue snowfall-George Morgan
TTITLE5=Empty chair at the Christmas table-Bob Wills
TTITLE6=Away in a manger-Sonny James
TTITLE7=Jingle bells-Jimmy Dean
TTITLE8=Blue Christmas-Stonewall Jackson
TTITLE9=Silent night, holy night-Carl Smith
EXTD=
EXTT0=
EXTT1=
EXTT2=
EXTT3=
EXTT4=
EXTT5=
EXTT6=
EXTT7=
EXTT8=
EXTT9=
PLAYORDER=
